<svg width="359" height="102" viewBox="0 0 359 102" fill="none" xmlns="http://www.w3.org/2000/svg">
<path d="M358.983 91.3908C358.983 96.9864 354.362 101.519 348.646 101.519H10.3671C4.65399 101.519 0.0166626 96.9864 0.0166626 91.3908V10.6225C0.0166626 5.02959 4.65399 0.481201 10.3671 0.481201H348.644C354.362 0.481201 358.981 5.02959 358.981 10.6225L358.983 91.3908Z" fill="black"/>
<path d="M79.0109 50.4332C78.9329 41.9728 86.1069 37.8568 86.4349 37.6652C82.372 31.8823 76.0746 31.0922 73.8617 31.0292C68.5726 30.4858 63.4422 34.1188 60.748 34.1188C57.9999 34.1188 53.851 31.0817 49.3793 31.1709C43.6251 31.2576 38.242 34.5099 35.2896 39.5604C29.1965 49.8583 33.7408 64.9914 39.5783 73.3153C42.4985 77.3919 45.9107 81.9437 50.3769 81.7836C54.7464 81.6077 56.3785 79.0641 61.6514 79.0641C66.8759 79.0641 68.4086 81.7836 72.9636 81.6812C77.653 81.6077 80.6054 77.5862 83.4234 73.4728C86.7979 68.8003 88.1531 64.1987 88.2069 63.9625C88.0966 63.9257 79.0996 60.5736 79.0109 50.4332Z" fill="white"/>
<path d="M70.4064 25.5534C72.7565 22.6843 74.3645 18.7809 73.9181 14.8198C70.5167 14.9668 66.2629 17.1167 63.8133 19.9228C61.646 22.3956 59.71 26.4486 60.2102 30.2601C64.0311 30.5383 67.9542 28.3779 70.4064 25.5534Z" fill="white"/>
<path d="M129.89 24.7741C129.89 27.8637 128.941 30.1894 127.045 31.7513C125.289 33.1924 122.794 33.9143 119.562 33.9143C117.959 33.9143 116.588 33.8461 115.44 33.7096V16.8282C116.938 16.5919 118.551 16.4712 120.293 16.4712C123.372 16.4712 125.693 17.1248 127.258 18.4321C129.011 19.9099 129.89 22.0231 129.89 24.7741ZM126.919 24.8502C126.919 22.8473 126.376 21.3117 125.289 20.2407C124.203 19.1723 122.617 18.6368 120.527 18.6368C119.64 18.6368 118.884 18.6946 118.258 18.8153V31.6489C118.605 31.7014 119.239 31.7251 120.162 31.7251C122.318 31.7251 123.983 31.1397 125.155 29.9689C126.327 28.7982 126.919 27.0919 126.919 24.8502Z" fill="white"/>
<path d="M145.644 27.4722C145.644 29.3754 145.088 30.9346 143.974 32.1579C142.807 33.4152 141.261 34.0426 139.331 34.0426C137.47 34.0426 135.988 33.4415 134.883 32.234C133.781 31.0291 133.23 29.5092 133.23 27.677C133.23 25.7607 133.797 24.1884 134.937 22.9677C136.077 21.7471 137.61 21.1355 139.54 21.1355C141.401 21.1355 142.896 21.7366 144.028 22.9415C145.104 24.1122 145.644 25.6242 145.644 27.4722ZM142.721 27.5615C142.721 26.4196 142.469 25.4405 141.966 24.6241C141.374 23.6371 140.533 23.1436 139.438 23.1436C138.306 23.1436 137.446 23.6371 136.854 24.6241C136.349 25.4405 136.099 26.4354 136.099 27.6114C136.099 28.7532 136.351 29.7324 136.854 30.5487C137.465 31.5357 138.314 32.0292 139.411 32.0292C140.487 32.0292 141.331 31.5279 141.939 30.5225C142.461 29.6904 142.721 28.7034 142.721 27.5615Z" fill="white"/>
<path d="M166.768 21.3875L162.802 33.7617H160.221L158.578 28.3883C158.161 27.047 157.822 25.7135 157.559 24.3905H157.508C157.263 25.7502 156.924 27.0811 156.488 28.3883L154.743 33.7617H152.132L148.403 21.3875H151.299L152.732 27.2701C153.079 28.6613 153.364 29.9869 153.593 31.2417H153.644C153.853 30.2074 154.2 28.8897 154.69 27.2963L156.488 21.3901H158.785L160.508 27.1703C160.925 28.58 161.264 29.9371 161.525 31.2443H161.603C161.794 29.9712 162.081 28.6141 162.463 27.1703L164.001 21.3901H166.768V21.3875Z" fill="white"/>
<path d="M181.377 33.7621H178.559V26.6746C178.559 24.4906 177.709 23.3986 176.004 23.3986C175.168 23.3986 174.493 23.6978 173.969 24.2989C173.45 24.9001 173.186 25.6088 173.186 26.4199V33.7594H170.369V24.9237C170.369 23.8369 170.334 22.6583 170.266 21.3826H172.743L172.875 23.3172H172.953C173.281 22.7161 173.77 22.2199 174.413 21.8236C175.176 21.3616 176.031 21.1279 176.967 21.1279C178.15 21.1279 179.134 21.5007 179.917 22.2488C180.89 23.1649 181.377 24.5326 181.377 26.3491V33.7621Z" fill="white"/>
<path d="M189.148 33.7618H186.333V15.7097H189.148V33.7618Z" fill="white"/>
<path d="M205.738 27.4722C205.738 29.3754 205.182 30.9346 204.068 32.1579C202.901 33.4152 201.353 34.0426 199.425 34.0426C197.561 34.0426 196.08 33.4415 194.977 32.234C193.875 31.0291 193.324 29.5092 193.324 27.677C193.324 25.7607 193.891 24.1884 195.031 22.9677C196.171 21.7471 197.704 21.1355 199.632 21.1355C201.495 21.1355 202.987 21.7366 204.122 22.9415C205.198 24.1122 205.738 25.6242 205.738 27.4722ZM202.813 27.5615C202.813 26.4196 202.56 25.4405 202.057 24.6241C201.468 23.6371 200.624 23.1436 199.532 23.1436C198.397 23.1436 197.537 23.6371 196.948 24.6241C196.443 25.4405 196.193 26.4354 196.193 27.6114C196.193 28.7532 196.445 29.7324 196.948 30.5487C197.559 31.5357 198.408 32.0292 199.505 32.0292C200.581 32.0292 201.422 31.5279 202.03 30.5225C202.555 29.6904 202.813 28.7034 202.813 27.5615Z" fill="white"/>
<path d="M219.376 33.7617H216.846L216.636 32.3364H216.558C215.692 33.473 214.458 34.0426 212.856 34.0426C211.659 34.0426 210.691 33.6672 209.962 32.9217C209.301 32.2445 208.97 31.4019 208.97 30.4017C208.97 28.8897 209.616 27.7374 210.914 26.9394C212.21 26.1414 214.033 25.7502 216.381 25.7686V25.5376C216.381 23.9075 215.504 23.0937 213.748 23.0937C212.498 23.0937 211.396 23.4009 210.444 24.0099L209.871 22.2039C211.049 21.4925 212.503 21.1355 214.219 21.1355C217.532 21.1355 219.193 22.8417 219.193 26.2542V30.8112C219.193 32.0476 219.255 33.032 219.376 33.7617ZM216.451 29.5092V27.6009C213.342 27.5484 211.788 28.3805 211.788 30.0946C211.788 30.7404 211.966 31.2234 212.329 31.5462C212.692 31.8691 213.154 32.0292 213.705 32.0292C214.324 32.0292 214.902 31.8376 215.429 31.457C215.959 31.0737 216.284 30.5881 216.405 29.9922C216.435 29.8584 216.451 29.6956 216.451 29.5092Z" fill="white"/>
<path d="M235.389 33.7618H232.888L232.756 31.7747H232.678C231.88 33.2867 230.519 34.0427 228.607 34.0427C227.08 34.0427 225.808 33.4573 224.8 32.2866C223.791 31.1158 223.289 29.596 223.289 27.7296C223.289 25.7267 223.834 24.1045 224.931 22.8655C225.994 21.7105 227.295 21.133 228.844 21.133C230.546 21.133 231.737 21.6921 232.415 22.813H232.468V15.7097H235.289V30.4281C235.289 31.633 235.321 32.7433 235.389 33.7618ZM232.468 28.5433V26.4801C232.468 26.1231 232.442 25.8343 232.39 25.6138C232.232 24.9523 231.89 24.3958 231.371 23.947C230.847 23.4981 230.215 23.2723 229.486 23.2723C228.435 23.2723 227.612 23.6792 227.007 24.4956C226.408 25.312 226.104 26.3541 226.104 27.6272C226.104 28.8505 226.392 29.8427 226.97 30.6066C227.58 31.4203 228.403 31.8272 229.433 31.8272C230.358 31.8272 231.097 31.4886 231.659 30.8087C232.202 30.1813 232.468 29.4253 232.468 28.5433Z" fill="white"/>
<path d="M259.489 27.4722C259.489 29.3754 258.933 30.9346 257.819 32.1579C256.652 33.4152 255.109 34.0426 253.176 34.0426C251.318 34.0426 249.836 33.4415 248.728 32.234C247.626 31.0291 247.075 29.5092 247.075 27.677C247.075 25.7607 247.642 24.1884 248.782 22.9677C249.922 21.7471 251.455 21.1355 253.388 21.1355C255.246 21.1355 256.744 21.7366 257.873 22.9415C258.949 24.1122 259.489 25.6242 259.489 27.4722ZM256.569 27.5615C256.569 26.4196 256.316 25.4405 255.813 24.6241C255.219 23.6371 254.38 23.1436 253.283 23.1436C252.154 23.1436 251.293 23.6371 250.699 24.6241C250.194 25.4405 249.944 26.4354 249.944 27.6114C249.944 28.7532 250.196 29.7324 250.699 30.5487C251.31 31.5357 252.159 32.0292 253.256 32.0292C254.332 32.0292 255.179 31.5279 255.787 30.5225C256.305 29.6904 256.569 28.7034 256.569 27.5615Z" fill="white"/>
<path d="M274.641 33.7621H271.826V26.6746C271.826 24.4906 270.976 23.3986 269.269 23.3986C268.432 23.3986 267.757 23.6978 267.236 24.2989C266.714 24.9001 266.453 25.6088 266.453 26.4199V33.7594H263.633V24.9237C263.633 23.8369 263.6 22.6583 263.533 21.3826H266.007L266.139 23.3172H266.217C266.547 22.7161 267.037 22.2199 267.677 21.8236C268.443 21.3616 269.295 21.1279 270.234 21.1279C271.414 21.1279 272.398 21.5007 273.181 22.2488C274.157 23.1649 274.641 24.5326 274.641 26.3491V33.7621Z" fill="white"/>
<path d="M293.606 23.448H290.503V29.4593C290.503 30.987 291.054 31.7509 292.146 31.7509C292.651 31.7509 293.071 31.7089 293.401 31.6223L293.474 33.7092C292.917 33.9139 292.186 34.0163 291.285 34.0163C290.172 34.0163 289.306 33.6855 288.68 33.024C288.05 32.3625 287.739 31.2495 287.739 29.6877V23.448H285.886V21.3874H287.739V19.1194L290.5 18.3057V21.3848H293.603V23.448H293.606Z" fill="white"/>
<path d="M308.524 33.7618H305.703V26.7268C305.703 24.5087 304.853 23.3983 303.151 23.3983C301.844 23.3983 300.952 24.0415 300.462 25.3277C300.379 25.5981 300.331 25.9288 300.331 26.3173V33.7592H297.515V15.7097H300.331V23.1673H300.384C301.272 21.8102 302.544 21.133 304.192 21.133C305.359 21.133 306.324 21.5057 307.09 22.2538C308.045 23.1857 308.524 24.5717 308.524 26.404V33.7618Z" fill="white"/>
<path d="M323.912 26.9894C323.912 27.4829 323.874 27.8977 323.807 28.2363H315.356C315.394 29.4596 315.797 30.3914 316.579 31.0372C317.295 31.6147 318.217 31.9034 319.346 31.9034C320.597 31.9034 321.737 31.7092 322.764 31.3181L323.205 33.2291C322.003 33.7383 320.589 33.9929 318.951 33.9929C316.988 33.9929 315.442 33.4286 314.323 32.2998C313.2 31.1711 312.643 29.6564 312.643 27.7559C312.643 25.8896 313.162 24.3356 314.208 23.0966C315.3 21.7736 316.776 21.1121 318.639 21.1121C320.462 21.1121 321.847 21.7736 322.783 23.0966C323.538 24.1466 323.912 25.4459 323.912 26.9894ZM321.223 26.2781C321.245 25.4617 321.059 24.7582 320.677 24.1649C320.188 23.4011 319.443 23.0178 318.435 23.0178C317.515 23.0178 316.765 23.3906 316.192 24.1387C315.724 24.7346 315.447 25.4459 315.356 26.2781H321.223Z" fill="white"/>
<path d="M142.245 81.1982H136.139L132.794 70.937H121.167L117.981 81.1982H112.036L123.555 46.2646H130.67L142.245 81.1982ZM131.786 66.632L128.761 57.5101C128.441 56.5783 127.841 54.3838 126.956 50.9293H126.849C126.497 52.415 125.929 54.6095 125.149 57.5101L122.178 66.632H131.786Z" fill="white"/>
<path d="M171.869 68.2933C171.869 72.5773 170.683 75.9636 168.312 78.4495C166.187 80.6623 163.55 81.7675 160.401 81.7675C157.002 81.7675 154.561 80.5757 153.074 78.1922H152.966V91.4616H147.233V64.3007C147.233 61.6075 147.161 58.8433 147.021 56.0083H152.063L152.383 60.001H152.49C154.402 56.9927 157.303 55.4912 161.197 55.4912C164.241 55.4912 166.782 56.6646 168.814 59.014C170.853 61.366 171.869 64.4582 171.869 68.2933ZM166.029 68.4981C166.029 66.0463 165.464 64.0251 164.329 62.4343C163.09 60.7753 161.425 59.9458 159.339 59.9458C157.924 59.9458 156.639 60.4078 155.491 61.3187C154.34 62.2375 153.587 63.4371 153.235 64.9228C153.057 65.6158 152.969 66.1828 152.969 66.6291V70.8291C152.969 72.6613 153.544 74.2075 154.695 75.4701C155.846 76.7327 157.341 77.3627 159.18 77.3627C161.339 77.3627 163.02 76.549 164.222 74.9267C165.426 73.3018 166.029 71.1598 166.029 68.4981Z" fill="white"/>
<path d="M201.546 68.2933C201.546 72.5773 200.36 75.9636 197.986 78.4495C195.865 80.6623 193.227 81.7675 190.078 81.7675C186.679 81.7675 184.238 80.5757 182.754 78.1922H182.646V91.4616H176.913V64.3007C176.913 61.6075 176.841 58.8433 176.701 56.0083H181.743L182.063 60.001H182.17C184.079 56.9927 186.98 55.4912 190.877 55.4912C193.918 55.4912 196.459 56.6646 198.497 59.014C200.527 61.366 201.546 64.4582 201.546 68.2933ZM195.706 68.4981C195.706 66.0463 195.139 64.0251 194.004 62.4343C192.764 60.7753 191.105 59.9458 189.016 59.9458C187.599 59.9458 186.316 60.4078 185.165 61.3187C184.015 62.2375 183.264 63.4371 182.912 64.9228C182.737 65.6158 182.646 66.1828 182.646 66.6291V70.8291C182.646 72.6613 183.221 74.2075 184.367 75.4701C185.518 76.7301 187.013 77.3627 188.857 77.3627C191.017 77.3627 192.697 76.549 193.899 74.9267C195.104 73.3018 195.706 71.1598 195.706 68.4981Z" fill="white"/>
<path d="M234.727 71.4013C234.727 74.3728 233.67 76.7904 231.549 78.6568C229.218 80.6964 225.972 81.715 221.802 81.715C217.951 81.715 214.864 80.9904 212.528 79.5388L213.856 74.8742C216.373 76.3599 219.134 77.1054 222.143 77.1054C224.302 77.1054 225.983 76.6277 227.19 75.6774C228.392 74.7272 228.992 73.4514 228.992 71.8607C228.992 70.4432 228.497 69.2488 227.505 68.2802C226.518 67.3116 224.87 66.4112 222.568 65.5791C216.303 63.2979 213.173 59.9563 213.173 55.5621C213.173 52.6903 214.27 50.3357 216.467 48.5034C218.656 46.6686 221.576 45.7524 225.227 45.7524C228.484 45.7524 231.189 46.3063 233.348 47.4114L231.915 51.9737C229.898 50.9027 227.618 50.3672 225.066 50.3672C223.049 50.3672 221.474 50.8528 220.344 51.8188C219.39 52.6824 218.911 53.7351 218.911 54.9819C218.911 56.3627 219.457 57.5046 220.554 58.4023C221.509 59.2318 223.243 60.1296 225.76 61.0982C228.838 62.3083 231.1 63.7232 232.555 65.3454C234.004 66.9624 234.727 68.9863 234.727 71.4013Z" fill="white"/>
<path d="M253.681 60.2086H247.362V72.4384C247.362 75.5491 248.475 77.1031 250.707 77.1031C251.732 77.1031 252.581 77.0164 253.254 76.8432L253.412 81.0931C252.283 81.5052 250.796 81.7126 248.954 81.7126C246.69 81.7126 244.921 81.0379 243.643 79.6913C242.372 78.3421 241.732 76.0793 241.732 72.9004V60.2033H237.967V56.0033H241.732V51.3912L247.362 49.7322V56.0033H253.681V60.2086Z" fill="white"/>
<path d="M282.191 68.3955C282.191 72.2674 281.057 75.4463 278.793 77.9322C276.418 80.4915 273.267 81.7673 269.338 81.7673C265.552 81.7673 262.538 80.5414 260.29 78.0897C258.042 75.6379 256.918 72.543 256.918 68.8129C256.918 64.9095 258.075 61.7123 260.395 59.2264C262.71 56.7379 265.835 55.4937 269.763 55.4937C273.549 55.4937 276.596 56.7195 278.895 59.1739C281.094 61.5548 282.191 64.6287 282.191 68.3955ZM276.243 68.5767C276.243 66.2535 275.735 64.2612 274.705 62.5995C273.504 60.5888 271.785 59.586 269.559 59.586C267.255 59.586 265.504 60.5914 264.302 62.5995C263.272 64.2638 262.764 66.2877 262.764 68.6817C262.764 71.0048 263.272 72.9972 264.302 74.6562C265.542 76.6669 267.273 77.6697 269.508 77.6697C271.697 77.6697 273.415 76.6459 274.654 74.6037C275.711 72.9105 276.243 70.8972 276.243 68.5767Z" fill="white"/>
<path d="M300.825 60.9302C300.258 60.8278 299.653 60.7753 299.019 60.7753C297.002 60.7753 295.442 61.5182 294.345 63.0066C293.391 64.3191 292.912 65.9781 292.912 67.981V81.1978H287.182L287.236 63.9411C287.236 61.0378 287.163 58.3945 287.021 56.011H292.014L292.224 60.8305H292.382C292.987 59.1741 293.942 57.8406 295.249 56.8405C296.526 55.9401 297.905 55.4912 299.392 55.4912C299.922 55.4912 300.401 55.528 300.825 55.5936V60.9302Z" fill="white"/>
<path d="M326.464 67.4112C326.464 68.414 326.397 69.2592 326.254 69.9496H309.056C309.123 72.4381 309.954 74.3412 311.551 75.6537C313.001 76.8271 314.875 77.4151 317.177 77.4151C319.723 77.4151 322.046 77.0187 324.135 76.2233L325.033 80.1083C322.592 81.1478 319.709 81.665 316.383 81.665C312.382 81.665 309.242 80.5152 306.956 78.2183C304.676 75.9215 303.533 72.8371 303.533 68.9678C303.533 65.1695 304.595 62.0063 306.722 59.4837C308.949 56.7905 311.957 55.4438 315.743 55.4438C319.462 55.4438 322.277 56.7905 324.189 59.4837C325.703 61.6231 326.464 64.2691 326.464 67.4112ZM320.997 65.9596C321.035 64.3006 320.661 62.8673 319.884 61.6572C318.892 60.1006 317.367 59.3236 315.316 59.3236C313.442 59.3236 311.917 60.0822 310.753 61.6047C309.798 62.8148 309.231 64.2665 309.056 65.957H320.997V65.9596Z" fill="white"/>
</svg>
