<svg width="67" height="67" viewBox="0 0 67 67" fill="none" xmlns="http://www.w3.org/2000/svg">
<rect width="67" height="67" rx="20" fill="#513088"/>
<path d="M44.6415 33C45.387 32.3449 45.8622 31.436 45.9746 30.4499C46.087 29.4639 45.8286 28.4713 45.2496 27.6653C44.6707 26.8592 43.8125 26.2974 42.8422 26.0891C41.8719 25.8807 40.8588 26.0408 40 26.5381V24C40.0005 23.1872 39.7533 22.3936 39.2912 21.725C38.8292 21.0563 38.1743 20.5444 37.4139 20.2574C36.6535 19.9705 35.8236 19.9221 35.035 20.1189C34.2464 20.3156 33.5366 20.748 33 21.3585C32.345 20.613 31.436 20.1378 30.4499 20.0254C29.4639 19.913 28.4713 20.1714 27.6653 20.7504C26.8592 21.3293 26.2974 22.1874 26.0891 23.1578C25.8807 24.1281 26.0408 25.1412 26.5381 26H24C23.1872 25.9995 22.3936 26.2467 21.725 26.7087C21.0563 27.1708 20.5444 27.8257 20.2574 28.5861C19.9705 29.3465 19.9221 30.1764 20.1189 30.965C20.3156 31.7536 20.748 32.4634 21.3585 33C20.613 33.655 20.1378 34.564 20.0254 35.55C19.913 36.5361 20.1714 37.5287 20.7503 38.3347C21.3293 39.1408 22.1874 39.7026 23.1578 39.9109C24.1281 40.1193 25.1412 39.9592 26 39.4619V42C25.9995 42.8128 26.2467 43.6064 26.7088 44.275C27.1708 44.9437 27.8257 45.4556 28.5861 45.7426C29.3465 46.0295 30.1764 46.0779 30.965 45.8811C31.7536 45.6844 32.4635 45.252 33 44.6415C33.6551 45.387 34.564 45.8622 35.5501 45.9746C36.5361 46.087 37.5287 45.8286 38.3347 45.2496C39.1408 44.6707 39.7026 43.8125 39.9109 42.8422C40.1193 41.8719 39.9592 40.8588 39.4619 40H42C42.8128 40.0005 43.6064 39.7533 44.275 39.2912C44.9437 38.8292 45.4556 38.1743 45.7426 37.4139C46.0295 36.6535 46.0779 35.8236 45.8811 35.035C45.6844 34.2464 45.252 33.5365 44.6415 33ZM28 24C28 23.4696 28.2107 22.9609 28.5858 22.5858C28.9609 22.2107 29.4696 22 30 22C30.5304 22 31.0391 22.2107 31.4142 22.5858C31.7893 22.9609 32 23.4696 32 24V26H30C29.4698 25.9994 28.9614 25.7885 28.5865 25.4135C28.2115 25.0386 28.0006 24.5302 28 24ZM22 30C22.0006 29.4697 22.2115 28.9614 22.5865 28.5864C22.9614 28.2115 23.4698 28.0006 24 28H30C30.5302 28.0006 31.0386 28.2115 31.4135 28.5864C31.7885 28.9614 31.9994 29.4697 32 30V32H24C23.4698 31.9994 22.9614 31.7885 22.5865 31.4135C22.2115 31.0386 22.0006 30.5302 22 30ZM38 42C38 42.5304 37.7893 43.0391 37.4142 43.4142C37.0391 43.7893 36.5304 44 36 44C35.4696 44 34.9609 43.7893 34.5858 43.4142C34.2107 43.0391 34 42.5304 34 42V40H36C36.5302 40.0006 37.0386 40.2115 37.4135 40.5865C37.7885 40.9614 37.9994 41.4697 38 42ZM42 38H36C35.4698 37.9994 34.9614 37.7885 34.5865 37.4135C34.2115 37.0386 34.0006 36.5302 34 36V34H42C42.5304 34 43.0391 34.2107 43.4142 34.5858C43.7893 34.9609 44 35.4696 44 36C44 36.5304 43.7893 37.0391 43.4142 37.4142C43.0391 37.7893 42.5304 38 42 38Z" fill="#FFB341"/>
</svg>
